<svg xmlns="http://www.w3.org/2000/svg" xmlns:xlink="http://www.w3.org/1999/xlink" width="185" height="210" viewBox="0 0 185 210" fill="none"><g opacity="1" transform="translate(0.3408203125 0)  rotate(0 91.9999988079071 104.49666531264782)"><g opacity="1" transform="translate(0 0)  rotate(0 91.9999988079071 104.4966653126478)"><g opacity="1" transform="translate(19.989090650081636 0)  rotate(0 79.4406050312519 104.4966653126478)"><path id="Vector" fill-rule="evenodd" style="fill:#001833" transform="translate(52.4678781080246 11.327438519891023)  rotate(0 39.267272218465806 45.74864007387721)" opacity="1" d="M0,25.02C3.54,35.48 10.65,65.05 10.65,65.05L31.79,65.67L56.34,56.62C56.34,56.62 42.73,15.98 40.95,11.53C39.16,7.08 34.29,2.71 27.39,0.58C20.49,-1.55 14.31,2.85 14.31,2.85L0,25.02Z " /><g opacity="1" transform="translate(28.966060230731966 146.1281367732067)  rotate(0 13.172727102041243 31.43259692604446)"><path id="Vector" fill-rule="evenodd" style="fill:#FDCE9D" transform="translate(0 0)  rotate(0 13.172727102041243 31.43259692604446)" opacity="1" d="M0.52,17.72C2.84,24.92 13.17,45.12 13.17,45.12L18.9,5.07L4.31,0C4.31,0 -1.79,10.52 0.52,17.72Z " /><path  id="Vector" style="stroke:#001833; stroke-width:0.680445328950882; stroke-opacity:1; stroke-dasharray:0 0" transform="translate(0 0)  rotate(0 9.018787761926651 31.3629324825027)" d="M4.31,0C4.31,0 -1.79,10.52 0.52,17.72C2.84,24.92 12.94,45.02 12.94,45.02 " /></g><path id="Vector" fill-rule="evenodd" style="fill:#FF7465" transform="translate(46.69696909189224 88.39024596579169)  rotate(0 43.81151458382607 60.30154232975197)" opacity="1" d="M0,86.56L60.43,86.56C60.43,86.56 58.54,58.58 61.86,28.47C64.83,1.56 60.23,1.24 60.23,1.24C38.54,-3.23 15.68,5.81 15.68,5.81C5.95,22.44 0,86.56 0,86.56Z " /><g opacity="1" transform="translate(39.448484337329866 0)  rotate(0 34.318787434101104 47.96396937850534)"><path id="Vector" fill-rule="evenodd" style="fill:#FDCE9D" transform="translate(56.301211391687396 44.16725720547914)  rotate(-76.93 5.93818174123764 4.6396519398815625)" opacity="1" d="M4.26,0C1.91,0 0,1.49 0,3.33C0,5.17 1.91,6.66 4.26,6.66C6.61,6.66 8.52,5.17 8.52,3.33C8.52,1.49 6.61,0 4.26,0Z " /><path id="Vector" fill-rule="evenodd" style="fill:#FDCE9D" transform="translate(43.016969139575956 54.714453957702396)  rotate(0 12.810302864313124 20.60674239965415)" opacity="1" d="M1.23,28.52C1.23,28.52 8.68,32.52 18.38,24.99C18.38,24.99 13.86,6.18 12.57,0C12.57,0.01 5.94,8.52 0,12.36C0,12.36 1.21,23.34 1.23,28.52Z " /><path  id="Vector" style="stroke:#001833; stroke-width:0.680445328950882; stroke-opacity:1; stroke-dasharray:0 0" transform="translate(43.016969139575956 54.714453957702396)  rotate(0 12.810302864313124 20.60674239965415)" d="M1.23,28.52C1.23,28.52 8.68,32.52 18.38,24.99C18.38,24.99 13.86,6.18 12.57,0C12.57,0.01 5.94,8.52 0,12.36C0,12.36 1.21,23.34 1.23,28.52Z " /><path id="Vector" fill-rule="evenodd" style="fill:#FDCE9D" transform="translate(12.001818026304244 23.880971246117113)  rotate(0 24.359090593457225 28.729616516623974)" opacity="1" d="M24.71,40.26C36.19,34.71 36.89,23.91 32.32,13.8C27.76,3.68 20.25,-3.99 6.39,2.25C-2.2,6.12 -1.04,16.31 3.52,26.43C8.08,36.54 16.99,43.99 24.71,40.26Z " /><path  id="Vector" style="stroke:#001833; stroke-width:0.680445328950882; stroke-opacity:1; stroke-dasharray:0 0" transform="translate(12.001818026304244 23.880971246117113)  rotate(0 24.359090593457225 28.729616516623974)" d="M24.71,40.26C36.19,34.71 36.89,23.91 32.32,13.8C27.76,3.68 20.25,-3.99 6.39,2.25C-2.2,6.12 -1.04,16.31 3.52,26.43C8.08,36.54 16.99,43.99 24.71,40.26Z " /><path  id="Vector" style="stroke:#001833; stroke-width:1.360890657901764; stroke-opacity:1; stroke-dasharray:0 0" transform="translate(27.502423886060715 39.13748438176369)  rotate(-15.92 9.69484835922718 11.696660070662379)" d="M6.96,0C3.11,0 0,3.76 0,8.4C0,13.03 3.11,16.79 6.96,16.79C10.8,16.79 13.91,13.03 13.91,8.4C13.91,3.76 10.8,0 6.96,0Z " /><path id="Vector" fill-rule="evenodd" style="fill:#001833" transform="translate(33.07818138957024 51.11976867094731)  rotate(-18.11 1.5193939197063446 2.619383077170372)" opacity="1" d="M1.09,0C0.49,0 0,0.84 0,1.88C0,2.92 0.49,3.76 1.09,3.76C1.69,3.76 2.18,2.92 2.18,1.88C2.18,0.84 1.69,0 1.09,0Z " /><path  id="Vector" style="stroke:#001833; stroke-width:0.680445328950882; stroke-opacity:1; stroke-dasharray:0 0" transform="translate(28.687272355556484 57.62642769774818)  rotate(0 3.0178787487745287 4.514255941506386)" d="M0,0L2.35,6.48L4.33,5.8 " /><path id="Vector" fill-rule="evenodd" style="fill:#001833" transform="translate(0 10.756190082848548)  rotate(0 29.656060221791265 22.132393713218807)" opacity="1" d="M8.05,1.3C2.09,5.1 0.66,11.44 0.66,11.44C0.66,11.44 -3.82,27.04 10.49,31.77C10.49,31.77 10.46,16.94 21.51,13.21C21.51,13.21 32.27,24.79 41.94,24.67C41.93,24.67 47.74,-0.97 23.65,3.26C23.65,3.26 14.02,-2.51 8.05,1.3Z " /><path  id="Vector" style="stroke:#001833; stroke-width:1.360890657901764; stroke-opacity:1; stroke-dasharray:0 0" transform="translate(9.130302911996841 44.40411631352114)  rotate(-15.92 9.534545331001281 11.508566073099612)" d="M6.84,0C3.06,0 0,3.7 0,8.26C0,12.82 3.06,16.52 6.84,16.52C10.62,16.52 13.68,12.82 13.68,8.26C13.68,3.7 10.62,0 6.84,0Z " /><path  id="Vector" style="stroke:#001833; stroke-width:1.360890657901764; stroke-opacity:1; stroke-dasharray:0 0" transform="translate(21.03454518198967 56.56752815591335)  rotate(0 1.8748484605550766 0.7802417676677704)" d="M2.69,0C1.24,0.14 0,1.12 0,1.12 " /><path  id="Vector" style="stroke:#001833; stroke-width:0.680445328950882; stroke-opacity:1; stroke-dasharray:0 0" transform="translate(47.11515090465545 62.87912674079728)  rotate(0 1.7912120980024338 2.24319508204484)" d="M2.57,0C-0.29,0.41 0.01,3.22 0.01,3.22 " /><path id="Vector" fill-rule="evenodd" style="fill:#001833" transform="translate(32.28363594532013 0)  rotate(0 2.822727236151695 6.409128805842399)" opacity="1" d="M1.67,0.34C-1.49,1.65 0.81,9.2 0.81,9.2C0.81,9.2 7.49,-2.08 1.67,0.34Z " /><path id="Vector"  style="fill:#001833" transform="translate(9.255757455825805 44.905700307021846)  rotate(0 3.115454505085945 3.5668195093383788)" opacity="1" d="" /><path  id="Vector" style="stroke:#FDCE9D; stroke-width:0.680445328950882; stroke-opacity:1; stroke-dasharray:0 0" transform="translate(9.255757455825805 44.905700307021846)  rotate(0 3.115454505085945 3.5668195093383788)" d="M4.47,0C0.62,0.97 0,5.12 0,5.12 " /></g><path id="Vector" fill-rule="evenodd" style="fill:#FF7465" transform="translate(31.753938982486726 96.48525430534481)  rotate(0 18.39999976158142 28.820180293228265)" opacity="1" d="M0,34.61C0,34.61 5.26,39.31 15.95,41.37L26.4,0C26.4,0 8.77,7.93 0,34.61Z " /><g opacity="1" transform="translate(0 75.85064612827395)  rotate(0 33.719393502473835 49.44085558159077)"><path id="Vector" fill-rule="evenodd" style="fill:#001833" transform="translate(0 0)  rotate(0 33.719393502473835 49.44085558159077)" opacity="1" d="M43.66 70.97L26.18 41.07C19.34 43.12 10.06 37.75 4.39 28.06C-1.89 17.33 -1.37 5.37 5.54 1.33C12.45 -2.7 23.15 2.72 29.42 13.45C34.83 22.7 35.18 32.86 30.74 38.07L48.38 68.22L43.66 70.97ZM25.9 15.5C20.97 7.09 12.95 2.62 7.99 5.52C3.02 8.42 2.98 17.59 7.91 26C12.83 34.41 20.85 38.88 25.81 35.98C30.78 33.08 30.82 23.91 25.9 15.5Z" /><path  id="Vector" style="stroke:#001833; stroke-width:0.680445328950882; stroke-opacity:1; stroke-dasharray:0 0" transform="translate(15.793333128690719 9.725156318430423)  rotate(0 7.980302926898002 5.796081702674866)" d="M11.45,8.32C7.1,1.19 0,0 0,0 " /></g><g opacity="1" transform="translate(40.28484796285629 141.96220304940914)  rotate(0 57.660302283167844 22.3413870438441)"><path id="Vector" fill-rule="evenodd" style="fill:#FDCE9D" transform="translate(0 0)  rotate(0 57.660302283167844 22.3413870438441)" opacity="1" d="M7.93,23.56C7.77,24.02 7.74,24.52 7.89,25.02C8.27,26.23 9.56,26.9 10.77,26.53L13.99,25.52C14.02,25.51 14.05,25.5 14.08,25.49L14.08,25.49C14.08,25.49 17.78,28.69 27.48,23.25C27.48,23.25 74.71,37.84 79.16,29.49C83.17,21.93 82.71,0 82.71,0L64.97,3.85L64.49,10.79L27.47,8.72C27.47,8.72 21.02,5.4 14.36,5.88L6.95,8.14L6.94,8.1L1.84,9.69C0.46,10.12 -0.31,11.59 0.12,12.97C0.48,14.11 1.54,14.84 2.68,14.81C1.53,15.37 0.93,16.69 1.32,17.95C1.75,19.33 3.23,20.11 4.61,19.68L5.46,19.41C4.58,19.94 4.14,21.02 4.46,22.05L4.52,22.23C4.89,23.44 6.18,24.11 7.39,23.73L7.93,23.56Z " /><path  id="Vector" style="stroke:#001833; stroke-width:0.680445328950882; stroke-opacity:1; stroke-dasharray:0 0" transform="translate(0 0)  rotate(0 57.660302283167844 22.30655482207322)" d="M64.98,3.85L64.5,10.78L27.47,8.72C27.47,8.72 21.02,5.4 14.37,5.87L6.95,8.14L6.94,8.1L1.84,9.68C0.46,10.11 -0.31,11.59 0.12,12.97C0.48,14.11 1.54,14.83 2.68,14.81C1.53,15.37 0.93,16.69 1.32,17.95C1.75,19.33 3.23,20.1 4.61,19.67L5.46,19.4C4.58,19.94 4.14,21.01 4.46,22.04L4.52,22.22C4.89,23.43 6.18,24.1 7.39,23.73L7.93,23.56C7.77,24.01 7.74,24.51 7.89,25.01C8.27,26.22 9.56,26.89 10.77,26.52L13.99,25.51C14.02,25.5 14.05,25.49 14.08,25.48L14.08,25.48C14.08,25.48 17.78,28.69 27.48,23.24C27.48,23.24 74.53,37.73 79.17,29.48C82.81,22.99 82.73,0 82.73,0 " /><path  id="Vector" style="stroke:#001833; stroke-width:0.680445328950882; stroke-opacity:1; stroke-dasharray:0 0" transform="translate(3.7357575273513794 19.04625886431861)  rotate(0 2.6693939048051836 0.7941746563761233)" d="M3.83,0L0,1.14 " /><path  id="Vector" style="stroke:#001833; stroke-width:0.680445328950882; stroke-opacity:1; stroke-dasharray:0 0" transform="translate(7.610908992290497 25.566850779827835)  rotate(0 2.06999997317791 0.7384431015427112)" d="M2.97,0L0,1.06 " /><path  id="Vector" style="stroke:#001833; stroke-width:0.680445328950882; stroke-opacity:1; stroke-dasharray:0 0" transform="translate(11.053939250707625 31.23753648412752)  rotate(0 2.216363607645035 0.7941746563761233)" d="M3.18,0L0,1.14 " /></g><path id="Vector" fill-rule="evenodd" style="fill:#FF7465" transform="translate(130.65393770098686 90.10399127691912)  rotate(0 14.113636180758476 28.61118696260297)" opacity="1" d="M0.15,41.07C11.01,39.69 20.25,39.32 20.25,39.32L18.45,22.93C16.83,3.22 0,0 0,0L0.15,41.07Z " /><path  id="Vector" style="stroke:#001833; stroke-width:0.680445328950882; stroke-opacity:1; stroke-dasharray:0 0" transform="translate(130.84908921360972 131.61006673910282)  rotate(0 0.5296969628334045 6.492726138092517)" d="M0.76,0L0,9.32 " /><path  id="Vector" style="stroke:#001833; stroke-width:0.680445328950882; stroke-opacity:1; stroke-dasharray:0 0" transform="translate(55.311514434814455 127.22120679597163)  rotate(0 1.7981817948818208 9.453464988617538)" d="M2.58,0L0,13.57 " /></g><g opacity="1" transform="translate(169.36363416910172 23.936702800950524)  rotate(0 7.318181723356247 7.300833683176994)"><path id="Vector" fill-rule="evenodd" style="fill:#FF7465" transform="translate(0 0)  rotate(0 7.318181723356247 7.300833683176994)" opacity="1" d="M8.25,9.2L7.81,6.76C7.74,6.37 7.89,5.98 8.19,5.73L10.1,4.15C10.96,3.44 10.32,2.05 9.21,2.25L6.77,2.68C6.38,2.75 5.99,2.61 5.74,2.31L4.16,0.4C3.45,-0.46 2.06,0.18 2.25,1.28L2.69,3.72C2.76,4.11 2.61,4.5 2.31,4.75L0.4,6.33C-0.46,7.04 0.18,8.43 1.29,8.23L3.73,7.8C4.12,7.73 4.51,7.87 4.76,8.17L6.34,10.08C7.05,10.94 8.44,10.3 8.25,9.2Z " /><path  id="Vector" style="stroke:#001833; stroke-width:0.680445328950882; stroke-opacity:1; stroke-dasharray:0 0" transform="translate(0 0)  rotate(0 7.318181723356247 7.300833683176994)" d="M8.19,5.73L10.1,4.15C10.96,3.44 10.32,2.05 9.21,2.25L6.77,2.68C6.38,2.75 5.99,2.61 5.74,2.31L4.16,0.4C3.45,-0.46 2.06,0.18 2.25,1.28L2.69,3.72C2.76,4.11 2.61,4.5 2.31,4.75L0.4,6.33C-0.46,7.04 0.18,8.43 1.29,8.23L3.73,7.8C4.12,7.73 4.51,7.87 4.76,8.17L6.34,10.08C7.05,10.94 8.44,10.3 8.25,9.2L7.81,6.76C7.74,6.37 7.89,5.98 8.19,5.73Z " /></g><g opacity="1" transform="translate(0 144.5537203491628)  rotate(0 7.3460605108737935 7.3286994605936995)"><path id="Vector" fill-rule="evenodd" style="fill:#FDCE9D" transform="translate(0 0)  rotate(0 7.3460605108737935 7.3286994605936995)" opacity="1" d="M2.73,6.81L2.32,9.25C2.13,10.35 3.54,10.98 4.24,10.11L5.8,8.18C6.04,7.88 6.43,7.73 6.82,7.8L9.27,8.2C10.37,8.39 11,6.99 10.13,6.29L8.2,4.73C7.9,4.49 7.74,4.1 7.81,3.71L8.22,1.27C8.41,0.17 7,-0.46 6.3,0.41L4.74,2.34C4.5,2.64 4.11,2.79 3.72,2.72L1.27,2.32C0.17,2.13 -0.46,3.53 0.41,4.23L2.34,5.79C2.64,6.03 2.8,6.42 2.73,6.81Z " /><path  id="Vector" style="stroke:#001833; stroke-width:0.680445328950882; stroke-opacity:1; stroke-dasharray:0 0" transform="translate(0 0)  rotate(0 7.3460605108737935 7.3286994605936995)" d="M9.27,8.2C10.37,8.39 11,6.99 10.13,6.29L8.2,4.73C7.9,4.49 7.74,4.1 7.81,3.71L8.22,1.27C8.41,0.17 7,-0.46 6.3,0.41L4.74,2.34C4.5,2.64 4.11,2.79 3.72,2.72L1.27,2.32C0.17,2.13 -0.46,3.53 0.41,4.23L2.34,5.79C2.64,6.03 2.8,6.42 2.73,6.81L2.32,9.25C2.13,10.35 3.54,10.98 4.24,10.11L5.8,8.18C6.04,7.88 6.43,7.73 6.82,7.8L9.27,8.2Z " /></g><path  id="Vector" style="stroke:#001833; stroke-width:0.680445328950882; stroke-opacity:1; stroke-dasharray:0 0" transform="translate(32.102423826456075 208.9933306252956)  rotate(0 72.83333238959312 0)" d="M0,0L104.5,0 " /></g></g></svg>