<svg xmlns="http://www.w3.org/2000/svg" xmlns:xlink="http://www.w3.org/1999/xlink" width="461" height="349" viewBox="0 0 461 349" fill="none"><defs><linearGradient id="linear_0" x1="8.595877140760422%" y1="50%" x2="70.31264305114746%" y2="34.40735340118408%" gradientUnits="objectBoundingBox"><stop offset="0" stop-color="#000000" stop-opacity="0" /><stop offset="1" stop-color="#171635" stop-opacity="0.2" /></linearGradient><linearGradient id="linear_1" x1="8.595877140760422%" y1="50%" x2="70.31264305114746%" y2="34.40735340118408%" gradientUnits="objectBoundingBox"><stop offset="0" stop-color="#000000" stop-opacity="0" /><stop offset="1" stop-color="#171635" stop-opacity="0.2" /></linearGradient><linearGradient id="linear_2" x1="8.595877140760422%" y1="50%" x2="70.31264305114746%" y2="34.40735340118408%" gradientUnits="objectBoundingBox"><stop offset="0" stop-color="#000000" stop-opacity="0" /><stop offset="1" stop-color="#171635" stop-opacity="0.2" /></linearGradient><linearGradient id="linear_3" x1="50%" y1="0%" x2="51%" y2="100%" gradientUnits="objectBoundingBox"><stop offset="0" stop-color="#60658C" stop-opacity="1" /><stop offset="1" stop-color="#8B8FB2" stop-opacity="1" /></linearGradient><linearGradient id="linear_4" x1="40.50143361091614%" y1="-52.0402193069458%" x2="65.94849228858948%" y2="60.30120849609375%" gradientUnits="objectBoundingBox"><stop offset="0" stop-color="#BFC2DA" stop-opacity="1" /><stop offset="1" stop-color="#8B8FB2" stop-opacity="1" /></linearGradient></defs><g opacity="1" transform="translate(-0.00002205371856689453 66.70318603131389)  rotate(0 208.21411134310776 140.4651285267833)"><g opacity="1" transform="translate(209.40497505664825 209.80126953509236)  rotate(0 68.52503967285156 8.720026969909668)"><path id="shadow" fill-rule="evenodd" fill="url(#linear_0)" transform="translate(0 0)  rotate(0 68.52503967285155 8.72002696990967)" opacity="1" d="M0 0L134.39 3.07L137.05 8.71L7.12 17.44L0 0Z" /><path id="shadow" fill-rule="evenodd" style="fill:#D8D8D8" transform="translate(0 0)  rotate(0 68.52503967285155 8.72002696990967)" opacity="0.13" d="M0 0L134.39 3.07L137.05 8.71L7.12 17.44L0 0Z" /></g><g opacity="1" transform="translate(0 253.80126953509236)  rotate(0 114.3542938232422 12.781439781188965)"><path id="shadow" fill-rule="evenodd" fill="url(#linear_1)" transform="translate(0 0)  rotate(0 114.3542938232422 12.781439781188965)" opacity="1" d="M27.36 0L228.71 0L198.02 15.19L0 25.56L27.36 0Z" /><path id="shadow" fill-rule="evenodd" style="fill:#D8D8D8" transform="translate(0 0)  rotate(0 114.3542938232422 12.781439781188965)" opacity="0.13" d="M27.36 0L228.71 0L198.02 15.19L0 25.56L27.36 0Z" /></g><g opacity="1" transform="translate(48.71108162403107 179.74133301165486)  rotate(0 121.17579650878906 14.019410133361816)"><path id="shadow" fill-rule="evenodd" fill="url(#linear_2)" transform="translate(0 0)  rotate(0 121.17579650878905 14.019410133361815)" opacity="1" d="M0 0L232.61 14.45L242.35 23.16L0 28.04L0 0Z" /><path id="shadow" fill-rule="evenodd" style="fill:#D8D8D8" transform="translate(0 0)  rotate(0 121.17579650878905 14.019410133361815)" opacity="0.13" d="M0 0L232.61 14.45L242.35 23.16L0 28.04L0 0Z" /></g><path id="jeans" fill-rule="evenodd" style="fill:#302C48" transform="translate(56.71108162403107 103.72152629560318)  rotate(0 92.54614942111249 82.60420031731259)" opacity="1" d="M101.94 130.01C75.76 133.87 0 132.08 0 132.08L0 117.32C0 117.32 66.12 105.28 83.38 107.08C83.47 96.17 83.18 87.25 78.64 54.28C74.1 21.31 91.71 0.02 91.71 0.02C91.71 0.02 109.43 -0.66 123.13 5.95C136.84 12.56 156.2 31.13 156.2 31.13C156.2 31.13 193.69 108.66 183.26 156.05C163.46 168.57 66.92 164.62 66.92 164.62L66.92 149.74C66.92 149.74 133.26 132.08 150.76 132.08C150.76 109.59 120.99 84.06 113.99 67.61C114.603 70.6146 115.903 72.6797 117.125 74.6203C118.636 77.02 120.027 79.2294 119.85 82.79C119.03 99.51 108.87 119.34 101.94 130.01Z" /><g opacity="1" transform="translate(233.5430247105435 83.79386042252852)  rotate(21.999999006829288 35.45682757904126 59.66319274902345)"><path id="Path 60" fill-rule="evenodd" style="fill:#FFFFFF" transform="translate(30.135147124813766 102.10674175561198)  rotate(-28.999998926631335 23.966310501098636 8.558432267297025)" opacity="1" d="M21.66 11.67L31.05 11.67C33.33 11.67 35.18 13.53 35.18 15.81L22.67 17.02C19.88 17.29 17.06 17 14.39 16.16L6.39 13.67C2.59 12.48 0 8.96 0 4.98L11.09 0L29.77 3.96C29.77 3.96 37.5 4.84 39.63 6.44C41.77 8.03 47.93 16.37 47.93 16.37L45.23 16.04C44 15.89 42.82 15.45 41.79 14.77L35.18 10.39C28.8 9.05 21.66 11.67 21.66 11.67Z" /><path id="Path 59" fill-rule="evenodd" fill="url(#linear_3)" transform="translate(0 0)  rotate(0 25.18765449523926 59.66319274902345)" opacity="1" d="M38.85 109.28L31.22 119.33C31.22 119.33 12.03 91.32 0 65.68C5.25 17.77 36.55 0 36.55 0C36.55 0 49.72 4.17 50.38 20.03C28.68 34.4 24.04 61.03 19.85 64.68C26.85 79.26 38.85 109.28 38.85 109.28Z" /><path id="Path 2" fill-rule="evenodd" style="fill:#EFF1F3" transform="translate(46.97865945100784 110.31176871061325)  rotate(0 5.53638696670532 2.069448709487915)" opacity="1" d="M8.51 2.19C7.64 3 6.63 4.14 6.63 4.14L0 3.85L11.07 0C11.07 0 9.38 1.37 8.51 2.19Z" /></g><g opacity="1" transform="translate(149.12605976330715 56.39602380279476)  rotate(38.000000407688546 120.54964071169864 84.06910472398854)"><g opacity="1" transform="translate(98.60496166739627 -41.78247109668646)  rotate(-37.00000193417059 54.32487131804582 45.13678169981901)"><path id="Path 53" fill-rule="evenodd" style="fill:#FFFFFF" transform="translate(10.944848941927162 15.36349619616521)  rotate(35.00000023358407 35.04105002553658 30.13016241788864)" opacity="1" d="M14.77 60.26L0 42.89L20.3 29.5C20.3 29.5 22.8 7.5 49.31 0L66.58 15.08C71.05 18.99 71.27 25.87 67.07 30.05L66.58 42.85C66.53 44.43 64.77 45.33 63.45 44.47L58.77 41.42L51.1 54.04C49.71 56.32 46.54 56.66 44.7 54.74L35.13 44.72L14.77 60.26Z" /><path id="Path 54" fill-rule="evenodd" style="fill:#302C48" transform="translate(36.43256438044931 6.510269887434511)  rotate(11.999999380000416 33.91007366727822 24.712643887803804)" opacity="1" d="M13.04 29.49C11.79 29.94 7.22 36.06 4.45 37.86C2.54 39.1 0 37.2 0 37.2C0 37.2 2.59 17.71 17.73 5.15C30.09 -3.78 49.43 -1.19 60.09 13.6C70.76 28.39 70.35 43.15 59.06 48.49C54.06 50.85 44.22 49.25 44.69 37.9C44.93 32.06 39.5 28.92 34.26 30.98C29.02 33.04 26.97 41.01 18.11 42.64C16.949 42.8548 16.5214 39.8649 16.065 36.6744C15.5229 32.8844 14.9403 28.8113 13.04 29.49Z" /><path id="Oval 14" fill-rule="evenodd" style="fill:#FFFFFF" transform="translate(44.75115469997088 29.49690546292993)  rotate(-116.9999993304421 5.090281963348389 7.07161808013916)" opacity="1" d="M5.09,0C2.28,0 0,3.17 0,7.07C0,10.98 2.28,14.14 5.09,14.14C7.9,14.14 10.18,10.98 10.18,7.07C10.18,3.17 7.9,0 5.09,0Z " /></g><g opacity="1" transform="translate(204.37731288904465 22.111198431508484)  rotate(-21.999999006829288 25.85589457267117 34.988959062878195)"><path id="Line" fill-rule="evenodd" style="fill:#302C48" transform="translate(-2.632910887653404 43.87899533517384)  rotate(-10.000000283105564 11.504253742244405 14.155837266267842)" opacity="1" d="M5.72 27.18C4.55 28.54 2.5 28.7 1.13 27.53C-0.23 26.36 -0.39 24.31 0.78 22.95L17.59 1.56C18.38 0.31 20.14 -0.35 21.39 0.19C22.64 0.73 23.66 3.03 22.5 4.39L5.72 27.18Z" /><path id="Oval 15 Copy" fill-rule="evenodd" style="fill:#D3D6EC" transform="translate(15.378838826444616 5.597871867866141)  rotate(38.000000407688546 12.39130401611328 23.027533766902405)" opacity="0.6" d="M10.5261 0.342387C11.2166 0.490055 11.8709 0.63 12.39 0.63C19.23 0.63 24.78 10.79 24.78 23.32C24.78 35.84 19.23 46 12.39 46C12.0405 46 11.6818 46.0132 11.319 46.0266C9.6372 46.0886 7.86723 46.1538 6.51 44.92C2.42 41.22 0 32.24 0 23.32C0 13.58 2.13 3.56 6.84 0.35C7.72898 -0.255822 9.19468 0.0576415 10.5261 0.342387Z" /><path id="Oval 15" fill-rule="evenodd" style="fill:#FFFFFF" transform="translate(11.355674379794989 2.889282184493979)  rotate(37.00000193417059 12.391304016113281 22.685184478759766)" opacity="0.6" d="M12.39,0C5.55,0 0,10.16 0,22.69C0,35.21 5.55,45.37 12.39,45.37C19.23,45.37 24.78,35.21 24.78,22.69C24.78,10.16 19.23,0 12.39,0Z " /></g><g opacity="1" transform="translate(200.97388013028967 68.81130025852292)  rotate(0 14.533378392698381 14.807972371578217)"><path id="Path 56" fill-rule="evenodd" style="fill:#FFFFFF" transform="translate(0 5.857335925102234)  rotate(0 14.533378392698381 11.8793044090271)" opacity="1" d="M0 11.39L4.39 9.36C9.38 7.05 14.8 5.83 20.3 5.76L25.57 5.7L26.05 0L28.48 8.76C29.4 12.07 29.24 15.59 28.02 18.81L27.13 21.17C26.54 22.73 25.05 23.76 23.39 23.76L0 23.76L0 11.39Z" /><path id="Path 57" fill-rule="evenodd" style="fill:#FFFFFF" transform="translate(1.1427901983261113 0)  rotate(0 7.021682368923809 8.483573138713838)" opacity="1" d="M0 16.97L2.97 8.37C3.58 6.61 4.78 5.12 6.36 4.16L13.16 0C14.43 1.62 14.32 3.92 12.91 5.41L11.39 7.04C10.52 7.97 10.03 9.19 10.03 10.46L10.03 13.24L0 16.97Z" /></g><path id="Path 55" fill-rule="evenodd" style="fill:#797DA0" transform="translate(116.08306019517894 11.024388042910175)  rotate(-37.00000193417059 12.973057545705295 17.68588660089899)" opacity="1" d="M25.04 31.29C20.88 35.12 12.22 35.37 12.22 35.37L0 2.87C0 2.87 13.85 -1.39 22.79 0.47C19.9183 2.03688 21.8194 9.37621 23.6795 16.5575C25.369 23.0798 27.0248 29.4718 25.04 31.29Z" /><g opacity="1" transform="translate(0 2.9886012512017714)  rotate(0 106.68836071684743 82.57480409838766)"><path id="Path 52" fill-rule="evenodd" fill="url(#linear_4)" transform="translate(10.13704344213319 15.750753222959517)  rotate(10.000000283105564 96.55131727471424 66.82405087542814)" opacity="1" d="M138.88 34.1C139.91 45.85 147.88 54.05 150.89 71.14C171.63 62.76 177.15 58.85 190.03 50.42C191.58 54.93 192.21 57.91 193.1 62.95C190.939 64.0321 187.104 67.1356 182.369 70.9682C169.995 80.9837 151.469 95.9782 140.57 92.89C127.55 78 118.98 65.56 113.67 50.47C86.19 72.63 85.07 106.09 85.07 106.09C85.07 106.09 66.42 101.61 42.38 109.4C18.34 117.19 0.05 133.65 0.05 133.65C0.05 133.65 -0.76 109.36 4.24 93.41C17.83 41.34 69.07 4.7 77.54 2.02C85.28 -0.42 118.18 -2.05 122.97 5.71C127.76 13.47 136.96 12.13 138.88 34.1Z" /><path id="Path 52" fill-rule="evenodd" style="fill:#D8D8D8" transform="translate(10.13704344213319 15.750753222959517)  rotate(10.000000283105564 96.55131727471424 66.82405087542814)" opacity="0.03" d="M42.38 109.4C18.34 117.19 0.05 133.65 0.05 133.65C0.05 133.65 -0.76 109.36 4.24 93.41C17.83 41.34 69.07 4.7 77.54 2.02C85.28 -0.42 118.18 -2.05 122.97 5.71C127.76 13.47 136.96 12.13 138.88 34.1C139.91 45.85 147.88 54.05 150.89 71.14C171.63 62.76 177.15 58.85 190.03 50.42C191.58 54.93 192.21 57.91 193.1 62.95C190.939 64.0321 187.104 67.1356 182.369 70.9682C169.995 80.9837 151.469 95.9782 140.57 92.89C127.55 78 118.98 65.56 113.67 50.47C86.19 72.63 85.07 106.09 85.07 106.09C85.07 106.09 66.42 101.61 42.38 109.4Z" /></g><path id="Path 58" fill-rule="evenodd" style="fill:#8B8FB2" transform="translate(93.79515155365297 58.4693358944711)  rotate(0 16.23783683584949 23.565900802612305)" opacity="0.2" d="M23.91 0C32.23 5.88 30.98 7.9 32.48 13.98C12.05 25.43 3.85 39.47 0.21 47.13C-1.94 43.61 12.7 4.89 23.91 0Z" /></g></g></svg>